<svg xmlns="http://www.w3.org/2000/svg" version="1.2" baseProfile="tiny-ps" viewBox="0 0 308 275" width="308" height="275">
    <title>Layer 1</title>
    <style>
        tspan { white-space:pre }
        .shp0 { fill: none;stroke: #181818;stroke-width: 9 }
    </style>
    <g id="Layer 1">
        <g id="&lt;Group&gt;">
            <g id="&lt;Group&gt;">
                <g id="&lt;Group&gt;">
                    <path id="&lt;Path&gt;" class="shp0" d="M180.98 31.74C180.98 46.63 168.91 58.71 154.04 58.71C139.15 58.71 127.08 46.63 127.08 31.74C127.08 16.86 139.15 4.78 154.04 4.78C168.91 4.78 180.98 16.86 180.98 31.74Z"/>
                    <path id="&lt;Path&gt;" class="shp0" d="M253.72 108.61L253.72 81.46"/>
                    <path id="&lt;Path&gt;" class="shp0" d="M119.54 171.2L188.53 171.2"/>
                    <path id="&lt;Path&gt;" class="shp0" d="M54.34 81.46L54.34 108.61"/>
                    <path id="&lt;Path&gt;" class="shp0" d="M154.03 274.78L154.03 191.69"/>
                    <path id="&lt;Path&gt;" class="shp0" d="M119.53 274.78L119.53 108.61L35.2 108.61C27.73 108.61 21.65 102.52 21.65 95.04C21.65 87.54 27.73 81.46 35.2 81.46L132.73 81.46L154.04 102.77L175.33 81.46L272.86 81.46C280.33 81.46 286.41 87.54 286.41 95.04C286.41 102.52 280.33 108.61 272.86 108.61L188.53 108.61L188.53 274.78"/>
                    <g id="&lt;Group&gt;">
                        <path id="&lt;Path&gt;" class="shp0" d="M154.04 116.77L154.04 126.77"/>
                        <path id="&lt;Path&gt;" class="shp0" d="M154.04 136.77L154.04 146.77"/>
                    </g>
                </g>
                <g id="&lt;Group&gt;">
                    <g id="&lt;Group&gt;">
                        <g id="&lt;Group&gt;">
                            <path id="&lt;Path&gt;" class="shp0" d="M250.52 173.93L269.98 123.78L289.45 173.93"/>
                        </g>
                        <path id="&lt;Path&gt;" class="shp0" d="M237.29 171.2C237.29 189.26 251.92 203.89 269.98 203.89C288.03 203.89 302.67 189.26 302.67 171.2L237.29 171.2Z"/>
                    </g>
                    <g id="&lt;Group&gt;">
                        <g id="&lt;Group&gt;">
                            <path id="&lt;Path&gt;" class="shp0" d="M18.62 173.93L38.08 123.78L57.54 173.93"/>
                        </g>
                        <path id="&lt;Path&gt;" class="shp0" d="M5.39 171.2C5.39 189.26 20.03 203.89 38.08 203.89C56.14 203.89 70.77 189.26 70.77 171.2L5.39 171.2Z"/>
                    </g>
                </g>
            </g>
        </g>
    </g>
</svg>