<svg xmlns="http://www.w3.org/2000/svg" version="1.2" baseProfile="tiny-ps" viewBox="0 0 270 267" width="270" height="267">
    <title>Layer 1</title>
    <style>
        tspan { white-space:pre }
        .shp0 { fill: none;stroke: #181818;stroke-width: 9 }
    </style>
    <g id="Layer 1">
        <g id="&lt;Group&gt;">
            <g id="&lt;Group&gt;">
                <path id="&lt;Path&gt;" class="shp0" d="M118.62 233.37L118.62 260.2C123.93 261.21 129.41 261.77 135.02 261.77C140.63 261.77 146.12 261.21 151.43 260.2L151.43 233.37"/>
                <path id="&lt;Path&gt;" class="shp0" d="M214.03 138.8C200.32 108.85 170.11 88.04 135.02 88.04C99.94 88.04 69.73 108.85 56.02 138.8"/>
                <g id="&lt;Group&gt;">
                    <g id="&lt;Group&gt;">
                        <path id="&lt;Path&gt;" class="shp0" d="M236.62 122.03L236.62 81.49C236.62 77.85 238 74.22 240.78 71.44C243.56 68.67 247.18 67.28 250.82 67.28C254.46 67.28 258.09 68.67 260.86 71.44C263.64 74.22 265.02 77.85 265.02 81.49L265.02 162.24C265.02 164.06 264.68 165.9 263.95 167.67C263.21 169.45 262.15 171 260.86 172.28L229.91 203.23C226.07 207.08 222.89 211.72 220.68 217.06C218.46 222.39 217.44 227.92 217.44 233.37L163.54 233.37L163.54 201.03C163.54 197.41 164.23 193.72 165.7 190.16C167.17 186.6 169.29 183.51 171.86 180.95L213.75 139.05C216.32 136.48 219.87 134.9 223.79 134.9C227.72 134.9 231.27 136.48 233.84 139.05C236.41 141.62 238 145.17 238 149.1C238 153.02 236.41 156.57 233.84 159.14L202.93 190.05C200.36 192.62 196.8 194.21 192.88 194.21"/>
                        <path id="&lt;Path&gt;" class="shp0" d="M151.43 260.2L151.43 233.37L229.55 233.37L229.55 260.2"/>
                    </g>
                    <g id="&lt;Group&gt;">
                        <path id="&lt;Path&gt;" class="shp0" d="M33.43 122.03L33.43 81.49C33.43 77.85 32.04 74.22 29.27 71.44C26.5 68.67 22.86 67.28 19.23 67.28C15.59 67.28 11.96 68.67 9.18 71.44C6.41 74.22 5.02 77.85 5.02 81.49L5.02 162.24C5.02 164.06 5.37 165.9 6.1 167.67C6.84 169.45 7.9 171 9.18 172.28L40.13 203.23C43.98 207.08 47.16 211.72 49.37 217.06C51.58 222.39 52.61 227.92 52.61 233.37L106.51 233.37L106.51 201.03C106.51 197.41 105.83 193.72 104.35 190.16C102.88 186.6 100.76 183.51 98.19 180.95L56.3 139.05C53.73 136.48 50.18 134.9 46.25 134.9C42.33 134.9 38.78 136.48 36.21 139.05C33.64 141.62 32.05 145.17 32.05 149.1C32.05 153.02 33.64 156.57 36.21 159.14L67.13 190.05C69.7 192.62 73.25 194.21 77.17 194.21"/>
                        <path id="&lt;Path&gt;" class="shp0" d="M118.62 260.2L118.62 233.37L40.5 233.37L40.5 260.2"/>
                    </g>
                </g>
                <g id="&lt;Group&gt;">
                    <g id="&lt;Group&gt;">
                        <g id="&lt;Group&gt;">
                            <path id="&lt;Path&gt;" class="shp0" d="M119.6 64.82C131.57 52.85 131.57 33.4 119.6 21.43C114.6 16.44 108.31 13.78 101.88 12.7C74.35 8.1 60.58 5.79 60.58 5.79C60.58 5.79 62.88 19.57 67.48 47.11C68.55 53.54 71.23 59.83 76.21 64.82C88.18 76.79 107.61 76.8 119.6 64.82Z"/>
                            <path id="&lt;Path&gt;" class="shp0" d="M150.45 64.82C138.48 52.85 138.48 33.4 150.45 21.43C155.45 16.44 161.74 13.78 168.16 12.7C195.7 8.1 209.47 5.79 209.47 5.79C209.47 5.79 207.17 19.57 202.57 47.11C201.49 53.54 198.82 59.83 193.83 64.82C181.87 76.79 162.44 76.8 150.45 64.82Z"/>
                        </g>
                    </g>
                    <g id="&lt;Group&gt;">
                        <path id="&lt;Path&gt;" class="shp0" d="M135.02 174.9L135.02 80.25"/>
                        <path id="&lt;Path&gt;" class="shp0" d="M172.15 43.13L135.02 80.25L97.9 43.13"/>
                    </g>
                </g>
            </g>
        </g>
    </g>
</svg>