<svg width="92" height="90" viewBox="0 0 92 90" fill="none" xmlns="http://www.w3.org/2000/svg">
    <path d="M90.8788 82.482C89.5313 79.8899 87.7392 77.5566 85.5845 75.5908C87.1117 74.5207 88.3789 73.1177 89.2915 71.486C90.2035 69.8542 90.7371 68.037 90.8518 66.1692C90.8604 66.0379 90.842 65.906 90.7979 65.7821C90.7537 65.6581 90.685 65.5447 90.5948 65.4492C90.5053 65.353 90.3974 65.2766 90.2771 65.2248C90.1569 65.1724 90.0275 65.1459 89.8963 65.1459H84.4327C83.685 65.1477 82.9466 64.9745 82.2774 64.6392C81.6077 64.3045 81.025 63.8175 80.5754 63.2164C80.1222 62.6179 79.5377 62.1321 78.8673 61.7974C78.1969 61.4631 77.4585 61.2885 76.7096 61.2875H52.8005L52.6041 62.3645C52.4158 63.3853 51.9956 64.3488 51.3761 65.1798C50.7567 66.0114 49.9548 66.687 49.0329 67.1561L39.9173 71.8669C35.3614 74.2118 31.6426 77.921 29.2751 82.482" fill="#DBDBF9"/>
    <path d="M90.8788 82.482C89.5313 79.8899 87.7392 77.5566 85.5845 75.5908C87.1117 74.5207 88.3789 73.1177 89.2915 71.486C90.2035 69.8542 90.7371 68.037 90.8518 66.1692C90.8604 66.0379 90.842 65.906 90.7979 65.7821C90.7537 65.6581 90.685 65.5447 90.5948 65.4492C90.5053 65.353 90.3974 65.2766 90.2771 65.2248C90.1569 65.1724 90.0275 65.1459 89.8963 65.1459H84.4327C83.685 65.1477 82.9466 64.9745 82.2774 64.6392C81.6077 64.3045 81.025 63.8175 80.5754 63.2164C80.1222 62.6179 79.5377 62.1321 78.8673 61.7974C78.1969 61.4631 77.4585 61.2885 76.7096 61.2875H52.8005L52.6041 62.3645C52.4158 63.3853 51.9956 64.3488 51.3761 65.1798C50.7567 66.0114 49.9548 66.687 49.0329 67.1561L39.9173 71.8669C35.3614 74.2118 31.6426 77.921 29.2751 82.482" stroke="#5F2EE4" stroke-width="2.18349" stroke-linecap="round" stroke-linejoin="round"/>
    <path d="M59.5055 52.5205C59.5261 52.4756 59.53 52.4248 59.5165 52.3774C59.503 52.3298 59.473 52.2888 59.4319 52.2616C59.3909 52.2345 59.3414 52.223 59.2927 52.2294C59.2439 52.2357 59.1991 52.2594 59.1662 52.2962H59.1126C58.4221 52.9915 57.5736 53.5077 56.6404 53.8C55.7072 54.0923 54.7172 54.1521 53.7558 53.9742L51.2292 53.4807C51.884 53.6104 52.4776 53.9547 52.9171 54.4596C53.3564 54.9646 53.6169 55.6017 53.6576 56.2713H54.1129C55.2835 56.2668 56.4254 55.906 57.3879 55.2365C58.3506 54.5669 59.0888 53.6201 59.5055 52.5205Z" fill="#5F2EE4" stroke="#5F2EE4" stroke-width="2.18349" stroke-linecap="round" stroke-linejoin="round"/>
    <path d="M42.7833 43.314L36.6497 46.7507C36.4392 46.8706 36.2739 47.0571 36.1797 47.2811C36.0855 47.5051 36.0676 47.7541 36.1286 47.9895C36.1897 48.2248 36.3264 48.4332 36.5175 48.5824C36.7086 48.7317 36.9434 48.8133 37.1854 48.8146H39.9887" stroke="#44BDA2" stroke-width="2.18349" stroke-linecap="round" stroke-linejoin="round"/>
    <path d="M39.9888 49.9632C40.6199 49.9632 41.1315 49.4489 41.1315 48.8146C41.1315 48.1803 40.6199 47.666 39.9888 47.666C39.3576 47.666 38.846 48.1803 38.846 48.8146C38.846 49.4489 39.3576 49.9632 39.9888 49.9632Z" fill="#5F2EE4"/>
    <path d="M45.0599 29.6118C44.3724 28.5709 43.4618 27.53 43.4618 26.3635C43.4618 24.6945 45.3188 23.2946 45.7295 21.7602C46.1402 20.2258 45.2563 18.0273 46.0509 16.6365C46.8455 15.2456 49.1668 14.9406 50.3096 13.7919C51.4524 12.6434 51.7292 10.3372 53.1398 9.5207C54.5504 8.70411 56.6485 9.61939 58.2288 9.18869C59.809 8.75798 61.1482 6.95435 62.809 6.95435C64.4693 6.95435 65.8622 8.8118 67.3888 9.22456C68.9154 9.63733 71.1031 8.74898 72.4868 9.55658C73.8705 10.3642 74.1741 12.6882 75.3173 13.8278C76.46 14.9674 78.7545 15.2636 79.5671 16.6724C80.3792 18.0812 79.4684 20.2078 79.8971 21.7961C80.3258 23.3843 82.1382 24.7303 82.1382 26.3993C82.1382 28.0684 80.3522 29.4682 79.8971 31.0027C79.442 32.5371 80.3706 34.7266 79.5671 36.1264C79.0225 37.0775 77.7811 37.5352 76.674 38.0646" stroke="#44BDA2" stroke-width="2.18349" stroke-linecap="round" stroke-linejoin="round"/>
    <path d="M60.5411 37.8044C60.0935 38.6078 59.7741 39.4768 59.5948 40.3797V40.2362C59.8902 38.7773 59.7853 37.2652 59.2915 35.8617C58.7977 34.4581 57.9335 33.2159 56.7914 32.2679L58.4163 28.8491C58.6096 28.4404 58.7078 27.9928 58.7034 27.5403C58.699 27.0877 58.592 26.6421 58.3906 26.2373C58.1893 25.8325 57.8988 25.4792 57.5412 25.2041C57.1836 24.929 56.7684 24.7393 56.3271 24.6496L47.2651 22.7653" stroke="#44BDA2" stroke-width="2.18349" stroke-linecap="round" stroke-linejoin="round"/>
    <path d="M77.8437 33.1472C76.8347 40.9629 72.0225 47.0199 68.8087 50.2502C67.9107 51.1707 67.2459 52.2937 66.8687 53.5254C66.4909 54.7571 66.4124 56.0616 66.6387 57.3301C64.5625 55.323 63.0261 52.8191 62.1748 50.0528C62.0773 49.688 62.0595 49.3063 62.1227 48.9338C62.1853 48.5614 62.3282 48.2071 62.5398 47.8951C62.752 47.5832 63.0286 47.321 63.3506 47.1266C63.6732 46.9321 64.0332 46.81 64.4068 46.7686" stroke="#44BDA2" stroke-width="2.18349" stroke-linecap="round" stroke-linejoin="round"/>
    <path d="M64.4337 46.7955C65.5224 46.5762 66.5473 46.1128 67.4329 45.4401C68.3192 44.7675 69.0423 43.9027 69.5496 42.9101C71.3975 39.6169 70.8799 35.8123 68.3891 34.4035C65.8978 32.9947 62.3895 34.5202 60.5412 37.8044" stroke="#5F2EE4" stroke-width="2.18349" stroke-linecap="round" stroke-linejoin="round"/>
    <path d="M90.8788 82.482C88.5114 77.9209 84.7921 74.2118 80.2363 71.8669L71.0853 67.1561C70.1666 66.6808 69.3668 66.0027 68.7461 65.173" stroke="#5F2EE4" stroke-width="2.18349" stroke-linecap="round" stroke-linejoin="round"/>
    <path d="M66.6393 57.3571L67.3532 61.2874H52.8005L53.5683 57.034C53.7071 56.2507 53.5341 55.4439 53.0865 54.7876C52.6389 54.1312 51.9526 53.678 51.1756 53.5255L46.7919 52.691C45.6612 52.472 44.6416 51.8641 43.9085 50.9716C43.1753 50.0792 42.7742 48.958 42.7743 47.8006V43.3139C42.7756 42.5136 42.5359 41.7316 42.0868 41.0706L40.578 38.8094C40.1741 38.2259 40.0007 37.5123 40.0915 36.8074C40.1822 36.1025 40.5307 35.4567 41.069 34.9958C43.2732 33.1493 44.8571 30.6644 45.6045 27.88C45.9621 25.3331 46.9135 22.9072 48.3811 20.8" stroke="#5F2EE4" stroke-width="2.18349" stroke-linecap="round" stroke-linejoin="round"/>
    <path d="M56.9074 67.4791V79.5027" stroke="#5F2EE4" stroke-width="2.18349" stroke-linecap="round" stroke-linejoin="round"/>
    <path d="M63.2463 67.4791V79.5027" stroke="#5F2EE4" stroke-width="2.18349" stroke-linecap="round" stroke-linejoin="round"/>
    <path d="M74.0312 65.1459H88.3341" stroke="#5F2EE4" stroke-width="2.18349" stroke-linecap="round" stroke-linejoin="round"/>
    <path d="M47.2026 41.6539C48.5492 41.8567 49.9183 41.8567 51.2649 41.6539C51.2649 41.6539 50.7114 44.8036 47.7562 44.6331" stroke="#5F2EE4" stroke-width="2.18349" stroke-linecap="round" stroke-linejoin="round"/>
    <path d="M47.9972 33.5062C48.1304 33.7403 48.3025 33.9497 48.5061 34.1253C48.7263 34.3225 48.9765 34.4831 49.2471 34.6009C49.5294 34.7305 49.8311 34.8124 50.1399 34.8432C50.4573 34.8794 50.7778 34.8794 51.0952 34.8432C51.2136 34.8242 51.3347 34.8532 51.4318 34.9239C51.5289 34.9946 51.5941 35.1011 51.613 35.2201C51.632 35.3391 51.6032 35.4608 51.5328 35.5584C51.4625 35.656 51.3565 35.7215 51.2381 35.7405C50.8525 35.841 50.4575 35.9011 50.0596 35.92C49.6445 35.9375 49.2291 35.8921 48.8275 35.7854C48.414 35.6801 48.0194 35.5106 47.658 35.2829C47.2706 35.0438 46.9264 34.7404 46.6401 34.3856C46.5738 34.3034 46.5243 34.2088 46.4946 34.1072C46.4649 34.0057 46.4557 33.8992 46.4672 33.794C46.4789 33.6888 46.5112 33.5869 46.5624 33.4944C46.6135 33.4019 46.6824 33.3205 46.7651 33.2549C46.8459 33.1866 46.9394 33.1352 47.0403 33.104C47.1412 33.0728 47.2473 33.0622 47.3523 33.0731C47.4572 33.0841 47.559 33.116 47.6514 33.1673C47.7438 33.2186 47.825 33.2881 47.8901 33.3716L47.9972 33.5062Z" fill="#5F2EE4"/>
    <path d="M48.89 28.2658C49.3392 28.2211 49.7928 28.2576 50.2292 28.3735C50.6458 28.469 51.0439 28.6327 51.4077 28.858C51.7642 29.0709 52.0863 29.3372 52.363 29.6476C52.6342 29.9405 52.8681 30.266 53.0594 30.6168C53.1163 30.7133 53.1352 30.8279 53.1122 30.9378C53.0892 31.0476 53.026 31.1449 52.9352 31.2102C52.8444 31.2755 52.7325 31.3043 52.6216 31.2908C52.5107 31.2773 52.4089 31.2225 52.3362 31.1372C52.1377 30.8837 51.9099 30.6548 51.6577 30.4552C51.4286 30.2544 51.1694 30.0909 50.8899 29.9707C50.6048 29.857 50.3033 29.7904 49.9971 29.7733C49.7306 29.7543 49.4628 29.7754 49.2025 29.8361C49.0024 29.898 48.7861 29.8782 48.6005 29.7807C48.4149 29.6833 48.2751 29.5161 48.2115 29.3156C48.1468 29.1121 48.165 28.8912 48.262 28.7012C48.3591 28.5111 48.5271 28.3675 48.7293 28.3017H48.8989L48.89 28.2658Z" fill="#5F2EE4"/>
    <path d="M65.0587 43.4575C66.8337 43.4575 68.2726 42.0112 68.2726 40.2271C68.2726 38.443 66.8337 36.9967 65.0587 36.9967C63.2837 36.9967 61.8449 38.443 61.8449 40.2271C61.8449 42.0112 63.2837 43.4575 65.0587 43.4575Z" stroke="#44BDA2" stroke-width="2.18349" stroke-linecap="round" stroke-linejoin="round"/>
    <path d="M65.8174 39.1593L81.2452 23.1869C81.4353 22.9904 81.5629 22.7418 81.6132 22.4724C81.6629 22.2031 81.6328 21.9249 81.5261 21.6728C81.4188 21.4207 81.2403 21.206 81.0127 21.0555C80.7852 20.905 80.5178 20.8255 80.2455 20.8269H79.799" stroke="#5F2EE4" stroke-width="2.18349" stroke-linecap="round" stroke-linejoin="round"/>
    <path d="M65.0587 41.5283C65.7739 41.5283 66.3535 40.9457 66.3535 40.2271C66.3535 39.5086 65.7739 38.926 65.0587 38.926C64.3436 38.926 63.764 39.5086 63.764 40.2271C63.764 40.9457 64.3436 41.5283 65.0587 41.5283Z" stroke="#5F2EE4" stroke-width="2.18349" stroke-linecap="round" stroke-linejoin="round"/>
    <path d="M60.0769 82.4821H50.256C49.5595 82.4821 48.8783 82.2774 48.2961 81.8934C47.7139 81.5087 47.2562 80.9619 46.9794 80.3196L38.8013 61.3053C38.2991 60.1373 37.4675 59.1426 36.4092 58.4442C35.3509 57.7457 34.1123 57.374 32.8463 57.375H5.28537C4.66825 57.3758 4.06101 57.5308 3.51827 57.826C2.97552 58.1211 2.51429 58.5473 2.17608 59.0661C1.83786 59.5849 1.63326 60.18 1.58068 60.798C1.5281 61.416 1.62919 62.0372 1.87485 62.6062L9.53513 80.3196C9.81199 80.9619 10.2697 81.5087 10.8518 81.8934C11.434 82.2774 12.1152 82.4821 12.8117 82.4821H21.7398" stroke="#44BDA2" stroke-width="2.18349" stroke-linecap="round" stroke-linejoin="round"/>
    <path d="M23.9744 75.6105C25.8218 74.9454 26.6032 72.3977 25.7198 69.9202C24.8363 67.4434 22.6225 65.9744 20.7751 66.6401C18.9277 67.3059 18.1463 69.8536 19.0298 72.3305C19.9133 74.8079 22.127 76.2763 23.9744 75.6105Z" stroke="#5F2EE4" stroke-width="2.18349" stroke-linecap="round" stroke-linejoin="round"/>
    <path d="M37.8817 41.9321L34.4266 39.7875C36.6278 35.8849 37.2804 31.2903 36.2535 26.9245C35.2266 22.5588 32.596 18.7443 28.889 16.2456C25.1819 13.7469 20.6723 12.7485 16.2638 13.4505C11.8552 14.1525 7.87348 16.503 5.11651 20.0311C2.35951 23.5591 1.03093 28.004 1.39701 32.475C1.76309 36.946 3.79677 41.1128 7.0905 44.1404C10.3843 47.168 14.6948 48.8327 19.1582 48.8009C23.6216 48.7691 27.9081 47.0432 31.1589 43.969L37.6585 43.0717C37.8024 43.0864 37.9464 43.0466 38.0627 42.9601C38.1788 42.8736 38.2587 42.7466 38.2866 42.6041C38.3145 42.4615 38.2885 42.3136 38.2136 42.1893C38.1387 42.065 38.0203 41.9733 37.8817 41.9321Z" stroke="#5F2EE4" stroke-width="2.18349" stroke-linecap="round" stroke-linejoin="round"/>
    <path d="M8.34771 25.3136H29.9358" stroke="#44BDA2" stroke-width="2.18349" stroke-linecap="round" stroke-linejoin="round"/>
    <path d="M8.34771 31.0834H29.9358" stroke="#44BDA2" stroke-width="2.18349" stroke-linecap="round" stroke-linejoin="round"/>
    <path d="M8.34771 36.8442H19.1418" stroke="#44BDA2" stroke-width="2.18349" stroke-linecap="round" stroke-linejoin="round"/>
</svg>
