<svg width="103" height="90" viewBox="0 0 103 90" fill="none" xmlns="http://www.w3.org/2000/svg">
    <path d="M0.761078 70.5688H102.239" stroke="#5F2EE4" stroke-width="1.5" stroke-linecap="round" stroke-linejoin="round"/>
    <path d="M50.8201 55.3543H88.2147V9.03149H58.8876L50.8201 17.1V55.3543Z" fill="#F3F5FA" stroke="#44BDA2" stroke-width="1.5" stroke-linecap="round" stroke-linejoin="round"/>
    <path d="M50.8201 23.9115V55.3542H81.6795L81.9941 55.04L50.8201 23.9115Z" fill="#DBDBF9"/>
    <path d="M76.9811 9.03149C76.9811 9.10245 76.9811 9.1734 76.9811 9.24436C76.9811 12.2212 78.1643 15.0764 80.2707 17.1823C82.3771 19.2882 85.2344 20.4727 88.2147 20.4754V9.03149H76.9811Z" fill="#DBDBF9"/>
    <path d="M57.8221 20.8402H81.2127" stroke="#5F2EE4" stroke-width="1.5" stroke-linecap="round" stroke-linejoin="round"/>
    <path d="M57.8221 24.5804H81.2127" stroke="#5F2EE4" stroke-width="1.5" stroke-linecap="round" stroke-linejoin="round"/>
    <path d="M57.8221 28.3107H81.2127" stroke="#5F2EE4" stroke-width="1.5" stroke-linecap="round" stroke-linejoin="round"/>
    <path d="M57.8221 32.0509H81.2127" stroke="#5F2EE4" stroke-width="1.5" stroke-linecap="round" stroke-linejoin="round"/>
    <path d="M50.8201 55.3543H88.2147V9.03149H58.8876L50.8201 17.1V55.3543Z" stroke="#44BDA2" stroke-width="1.5" stroke-linecap="round" stroke-linejoin="round"/>
    <path d="M58.8876 9.03149V17.1H50.8201L58.8876 9.03149Z" stroke="#5F2EE4" stroke-width="1.5" stroke-linecap="round" stroke-linejoin="round"/>
    <path d="M32.7427 9.60621L6.30072 36.0182L39.0859 68.7662L65.5278 42.3542L32.7427 9.60621Z" fill="#F3F5FA" stroke="#44BDA2" stroke-width="1.5" stroke-linecap="round" stroke-linejoin="round"/>
    <path d="M64.5094 43.3732L58.6948 37.5752H19.3823C19.1103 37.574 18.841 37.6297 18.5919 37.7387C18.3428 37.8477 18.1192 38.0076 17.9357 38.2081C17.7522 38.4087 17.6127 38.6453 17.5263 38.9029C17.4399 39.1605 17.4084 39.4333 17.4339 39.7038L18.1747 47.8939L39.0791 68.7747L64.5094 43.3732Z" fill="#DBDBF9"/>
    <path d="M16.1553 37.5651L28.1905 25.5435" stroke="#5F2EE4" stroke-width="1.5" stroke-linecap="round" stroke-linejoin="round"/>
    <path d="M30.6057 23.131L34.2792 19.4617" stroke="#5F2EE4" stroke-width="1.5" stroke-linecap="round" stroke-linejoin="round"/>
    <path d="M18.8038 40.2106L30.8391 28.1788" stroke="#5F2EE4" stroke-width="1.5" stroke-linecap="round" stroke-linejoin="round"/>
    <path d="M33.2543 25.7766L36.9278 22.1073" stroke="#5F2EE4" stroke-width="1.5" stroke-linecap="round" stroke-linejoin="round"/>
    <path d="M21.4524 42.8461L33.4877 30.8245" stroke="#5F2EE4" stroke-width="1.5" stroke-linecap="round" stroke-linejoin="round"/>
    <path d="M35.9029 28.412L39.5662 24.7528" stroke="#5F2EE4" stroke-width="1.5" stroke-linecap="round" stroke-linejoin="round"/>
    <path d="M38.5514 31.0576L42.2148 27.3984" stroke="#5F2EE4" stroke-width="1.5" stroke-linecap="round" stroke-linejoin="round"/>
    <path d="M65.5141 42.3595L39.0791 68.7645L6.29163 36.0142" stroke="#44BDA2" stroke-width="1.5" stroke-linecap="round" stroke-linejoin="round"/>
    <path d="M53.4889 38.7004L54.3718 36.886C54.5346 36.5572 54.7862 36.2804 55.0983 36.0869C55.4103 35.8935 55.7703 35.7911 56.1375 35.7913H79.1527C79.5185 35.7918 79.8768 35.8946 80.1871 36.0881C80.4973 36.2816 80.7472 36.558 80.9083 36.886L82.0955 39.2984C82.2463 39.614 82.3127 39.9632 82.2883 40.312L78.9802 76.2553C78.9395 76.7438 78.7167 77.1992 78.3559 77.5315C77.9951 77.8637 77.5225 78.0485 77.0318 78.0494H25.8261C25.3386 78.049 24.8687 77.867 24.5084 77.5389C24.1481 77.2109 23.9232 76.7604 23.8777 76.2755L20.742 41.9237C20.7181 41.6535 20.7507 41.3814 20.8377 41.1244C20.9247 40.8675 21.0643 40.6315 21.2475 40.4313C21.4307 40.2312 21.6536 40.0712 21.902 39.9617C22.1504 39.8522 22.4189 39.7954 22.6904 39.7951H51.7537C52.1157 39.7897 52.4693 39.6846 52.7754 39.4915C53.0816 39.2983 53.3285 39.0246 53.4889 38.7004V38.7004Z" fill="#DBDBF9" stroke="#5F2EE4" stroke-width="1.5" stroke-linecap="round" stroke-linejoin="round"/>
    <path d="M88.2146 17.7284C92.9056 17.7284 96.7083 13.9299 96.7083 9.24432C96.7083 4.5587 92.9056 0.760254 88.2146 0.760254C83.5237 0.760254 79.7209 4.5587 79.7209 9.24432C79.7209 13.9299 83.5237 17.7284 88.2146 17.7284Z" fill="#F3F5FA" stroke="#5F2EE4" stroke-width="1.5" stroke-linecap="round" stroke-linejoin="round"/>
    <path d="M83.9323 9.70049L86.4896 12.2548L92.5072 6.24402" stroke="#44BDA2" stroke-width="1.5" stroke-linecap="round" stroke-linejoin="round"/>
    <path d="M9.28521 86.797H6.6265" stroke="#5F2EE4" stroke-width="1.5" stroke-linecap="round" stroke-linejoin="round"/>
    <path d="M12.6543 89.1993H51.0332C51.3543 89.1993 51.6724 89.1361 51.9691 89.0134C52.2658 88.8906 52.5354 88.7107 52.7625 88.4838C52.9896 88.257 53.1697 87.9877 53.2926 87.6913C53.4155 87.3949 53.4788 87.0773 53.4788 86.7565V86.7565C53.4788 86.4361 53.4155 86.119 53.2924 85.8232C53.1694 85.5273 52.9891 85.2587 52.7619 85.0327C52.5347 84.8066 52.265 84.6277 51.9683 84.506C51.6717 84.3844 51.3539 84.3224 51.0332 84.3238H12.6543V89.1993Z" fill="#F3F5FA" stroke="#5F2EE4" stroke-width="1.5" stroke-linecap="round" stroke-linejoin="round"/>
    <path d="M11.7207 84.3643C11.1006 84.4042 10.519 84.6784 10.094 85.1312C9.66904 85.584 9.43253 86.1814 9.43253 86.802C9.43253 87.4227 9.66904 88.0201 10.094 88.4728C10.519 88.9256 11.1006 89.1998 11.7207 89.2398H23.9488C23.3287 89.1998 22.7471 88.9256 22.3221 88.4728C21.8971 88.0201 21.6606 87.4227 21.6606 86.802C21.6606 86.1814 21.8971 85.584 22.3221 85.1312C22.7471 84.6784 23.3287 84.4042 23.9488 84.3643H11.7207Z" fill="#F3F5FA" stroke="#44BDA2" stroke-width="1.5" stroke-linecap="round" stroke-linejoin="round"/>
    <path d="M53.4788 88.3681C54.3475 88.3681 55.0517 87.6647 55.0517 86.7969C55.0517 85.9292 54.3475 85.2258 53.4788 85.2258C52.6101 85.2258 51.9059 85.9292 51.9059 86.7969C51.9059 87.6647 52.6101 88.3681 53.4788 88.3681Z" fill="#5F2EE4" stroke="#5F2EE4" stroke-width="1.5" stroke-linecap="round" stroke-linejoin="round"/>
    <path d="M33.9139 87.2937H45.594C45.9329 87.2953 46.2689 87.2298 46.5824 87.1011C46.8959 86.9723 47.1808 86.7828 47.4206 86.5436L47.6641 86.3003" stroke="#5F2EE4" stroke-width="1.5" stroke-linecap="round" stroke-linejoin="round"/>
</svg>
