<svg width="351" height="72" viewBox="0 0 351 72" fill="none" xmlns="http://www.w3.org/2000/svg">
    <path d="M9.62695 44.168V72H0.251953V0.90625H26.4727C34.2526 0.90625 40.3398 2.89193 44.7344 6.86328C49.1615 10.8346 51.375 16.0918 51.375 22.6348C51.375 29.5358 49.2103 34.8581 44.8809 38.6016C40.584 42.3125 34.4154 44.168 26.375 44.168H9.62695ZM9.62695 36.502H26.4727C31.4857 36.502 35.3268 35.3301 37.9961 32.9863C40.6654 30.61 42 27.1921 42 22.7324C42 18.5007 40.6654 15.1152 37.9961 12.5762C35.3268 10.0371 31.6647 8.71875 27.0098 8.62109H9.62695V36.502ZM95.8574 53.4453H66.0723L59.3828 72H49.7148L76.8633 0.90625H85.0664L112.264 72H102.645L95.8574 53.4453ZM68.9043 45.7305H93.0742L80.9648 12.4785L68.9043 45.7305ZM164.607 8.62109H141.756V72H132.43V8.62109H109.627V0.90625H164.607V8.62109ZM215.34 39.1387H184.529V64.334H220.32V72H175.154V0.90625H219.832V8.62109H184.529V31.4727H215.34V39.1387ZM286.629 72H277.205L241.414 17.2148V72H231.99V0.90625H241.414L277.303 55.9355V0.90625H286.629V72ZM350.936 8.62109H328.084V72H318.758V8.62109H295.955V0.90625H350.936V8.62109Z" fill="#5F2EE5"/>
</svg>
