<svg version="1.2" baseProfile="tiny-ps" xmlns="http://www.w3.org/2000/svg" viewBox="0 0 743 437" width="743" height="437">
    <title>Layer 1</title>
    <style>
        tspan { white-space:pre }
        .shp0 { fill: #586671 }
        .shp1 { fill: #ffa43c }
        .shp2 { fill: #ff7f2a }
    </style>
    <g id="Layer 1">
        <g id="&lt;Group&gt;">
            <g id="&lt;Group&gt;">
                <path id="&lt;Path&gt;" class="shp0" d="M162.41 436.02C158.33 436.02 156.69 434.39 156.69 430.38L156.69 370.39C156.69 363.68 162.29 360.98 165.55 360.94L202.19 360.94C214.86 361.01 223.65 364.36 228.31 370.89C230.52 374.09 231.66 378.05 231.66 382.61C231.66 389.71 229.23 394.98 224.25 398.7C219.29 402.25 214.18 404.06 209.09 404.07L181.91 404.06L181.45 404.07C179.47 404.07 178.02 403.64 177.16 402.79C176.31 401.96 175.87 400.54 175.87 398.59C175.87 394.75 177.55 393.13 181.64 393.01L208.77 393.01C214.29 393.01 217.9 391.32 219.5 388C219.84 387.23 220.08 386.46 220.27 385.61C220.45 384.74 220.55 383.73 220.55 382.61C220.55 380.06 220.07 378.16 219.1 376.8C218.12 375.42 216.55 374.1 214 373.28C212.65 372.84 210.86 372.79 208.85 372.57C206.97 372.38 204.67 372.24 202.03 372.16L172.99 372.16C168.74 372.16 167.9 374.34 167.9 377.99L167.9 430.38C168 432.48 167.62 433.92 166.81 434.75C166.01 435.59 164.6 436.02 162.61 436.02L162.41 436.02Z" />
                <path id="&lt;Path&gt;" class="shp0" d="M385.3 436.02C383.26 436.02 381.77 435.58 380.92 434.72C380.1 433.88 379.7 432.5 379.73 430.59L379.73 380.27C379.73 375.12 377.03 372.16 372.31 372.16L352.4 372.16L351.94 372.16C349.93 372.16 348.47 371.73 347.6 370.87C346.74 370.03 346.3 368.6 346.3 366.63C346.3 362.71 348.09 361.06 352.47 360.94L417.51 360.94L417.89 360.94C419.91 360.94 422.07 361.36 422.07 366.41C422.07 371.51 420.05 371.94 418.16 371.94L398.71 371.93C395.89 372.12 391.36 373.44 390.96 380.24L390.95 430.67C391.03 432.57 390.69 433.88 389.93 434.67C389.08 435.57 387.52 436.02 385.3 436.02Z" />
                <path id="&lt;Path&gt;" class="shp0" d="M704.92 436.02C702.86 436.02 701.39 435.58 700.53 434.72C699.71 433.88 699.31 432.5 699.34 430.59L699.34 380.27C699.34 375.12 696.63 372.16 691.92 372.16L672.01 372.16L671.55 372.16C669.54 372.16 668.08 371.73 667.21 370.87C666.35 370.03 665.92 368.6 665.92 366.63C665.92 362.71 667.7 361.06 672.07 360.94L737.12 360.94L737.5 360.94C739.51 360.94 741.67 361.36 741.67 366.41C741.67 371.51 739.65 371.94 737.77 371.94L718.33 371.93C715.5 372.12 710.97 373.44 710.56 380.24L710.56 430.67C710.65 432.57 710.29 433.88 709.54 434.67C708.68 435.57 707.13 436.02 704.92 436.02Z" />
                <path id="&lt;Path&gt;" class="shp0" d="M465.37 436.02C459.29 436.02 454.16 432.21 454.16 425.83L454.16 369.93C454.16 363.78 460.68 360.94 463.69 360.94L524.65 360.94C526.71 360.94 528.9 361.36 528.9 366.41C528.9 371.51 526.77 371.94 524.77 371.94L472.37 371.93L472.29 371.94C467.9 372.26 465.38 375.17 465.38 379.93L465.38 393.01L509.96 393.01C513.98 393.13 515.65 394.75 515.65 398.59C515.65 402.54 514.09 404.07 510.07 404.07L509.67 404.06L465.38 404.06L465.38 416.58C465.38 424 470.33 424.8 472.46 424.8L524.46 424.8C526.61 424.8 528.9 425.23 528.9 430.38C528.9 435.07 526.94 436.02 524.01 436.02L465.37 436.02Z" />
                <path id="&lt;Path&gt;" class="shp0" d="M569.8 436.02C565.72 436.02 564.08 434.39 564.08 430.38L564.08 364.64C564.08 361.6 565.23 360.97 567.24 360.94L571.08 360.94C572.69 360.94 574.42 361.77 576.22 363.4L618.55 409.07L621.44 412.18C624.03 414.94 627.7 415.98 627.7 408.92L627.7 366.63C627.62 364.55 627.97 363.12 628.78 362.28C629.56 361.47 630.94 361.05 632.86 361.05L633.05 361.05C637.17 361.11 638.87 362.71 638.93 366.56L638.81 431.24C638.81 434.69 637.25 436.18 635.4 436.18L632.54 436.33C629.1 436.33 625.76 432.21 623.37 429.54L585.05 387.56C578.24 380.06 575.3 381.66 575.3 386.35L575.3 430.38C575.38 432.48 575.01 433.92 574.2 434.75C573.4 435.59 571.98 436.02 569.99 436.02L569.8 436.02Z" />
                <path id="&lt;Path&gt;" class="shp0" d="M326.54 434.14L297.69 363.1C297.07 361.59 296.33 360.94 290.2 360.94C285.94 360.94 283.8 360.76 282.5 362.95L254.43 433.64C254.05 434.81 253.94 435.58 254.09 435.95C254.1 435.96 254.31 436.11 254.87 436.14L262.92 436.14C263.81 436.11 264.84 435.82 265.58 433.89L272.36 416.17L291.59 416.17L291.99 416.18C296 416.18 297.57 414.65 297.57 410.72C297.57 406.86 295.9 405.24 291.87 405.12L276.58 405.12L285.26 382.43C286.22 379.57 287.57 376.65 290.27 376.65C293.38 376.65 294.67 380.72 295.17 382.32L315.21 433.87C315.96 435.79 316.97 436.1 317.95 436.14L325.93 436.03C326.46 436 326.73 435.9 326.79 435.9L326.8 435.9C326.8 435.89 326.97 435.42 326.54 434.14Z" />
            </g>
            <g id="&lt;Group&gt;">
                <path id="&lt;Compound Path&gt;" fill-rule="evenodd" class="shp0" d="M299.13 256.86L299.13 315C299.13 321.84 293.63 327.34 286.79 327.34L168.95 327.34C162.1 327.34 156.61 321.84 156.61 315L156.61 256.86C156.61 250.16 162.1 244.66 168.95 244.66L286.79 244.66C293.63 244.66 299.13 250.16 299.13 256.86ZM269.66 302.76C272.27 302.76 274.39 300.73 274.58 298.16L274.58 272.86C274 270.77 272.11 269.24 269.83 269.24L185.97 269.24C183.62 269.24 181.66 270.88 181.15 273.07L181.19 297.79C181.19 300.53 183.4 302.76 186.14 302.76L269.66 302.76Z" />
                <path id="&lt;Path&gt;" class="shp0" d="M443.34 244.66C436.63 244.66 431.13 250.16 431.13 256.86L431.13 297.87C431.1 300.58 428.9 302.76 426.18 302.76L426 302.76C425.98 302.76 417.82 302.76 401.51 302.76C399.16 302.76 397.2 301.11 396.69 298.93L396.69 256.86C396.69 250.16 391.2 244.66 384.48 244.66C377.65 244.66 372.15 250.16 372.15 256.86L372.15 298.93C371.63 301.12 369.68 302.76 367.34 302.76L342.66 302.76C339.94 302.76 337.73 300.55 337.71 297.83L337.71 256.86C337.71 250.16 332.21 244.66 325.49 244.66C318.66 244.66 313.16 250.16 313.16 256.86L313.16 315C313.16 321.84 318.66 327.34 325.49 327.34C353.34 327.34 369.01 327.34 372.51 327.34C377.89 327.34 384.48 324.04 384.48 317.32C384.48 324.04 390.34 327.34 396.09 327.34C399.91 327.34 415.66 327.34 443.34 327.34C450.19 327.34 455.68 321.84 455.68 315L455.68 256.86C455.68 250.16 450.19 244.66 443.34 244.66Z" />
                <path id="&lt;Path&gt;" class="shp0" d="M130.24 244.66L12.39 244.66C5.55 244.66 0.05 250.16 0.05 256.86L0.05 315C0.05 321.84 5.55 327.34 12.39 327.34C19.11 327.34 24.61 321.84 24.61 315L24.61 274.41C24.61 274.39 24.64 274.37 24.64 274.35L24.64 274.17C24.64 271.43 26.86 269.21 29.59 269.21L115.55 269.28C118.25 269.28 120.44 271.44 120.44 274.11C120.44 276.79 118.25 278.95 115.55 278.95L50.6 279.09C42.66 279.09 38.39 284.59 38.39 291.29C38.39 298.12 44.73 303.61 50.6 303.61L130.24 303.6C137.08 303.6 142.58 298.11 142.58 291.38L142.58 256.86C142.58 250.16 137.08 244.66 130.24 244.66Z" />
                <path id="&lt;Path&gt;" class="shp0" d="M742.33 284.31C742.33 279.12 742.33 269.97 742.33 256.86C742.33 250.16 736.83 244.66 730 244.66L612.14 244.66C605.3 244.66 599.81 250.16 599.81 256.86L599.81 315C599.81 321.84 605.3 327.34 612.14 327.34C618.59 327.34 623.85 322.26 624.27 315.82L624.25 273.6C624.52 271.19 626.48 269.31 628.94 269.21L714.06 269.21L714.06 269.46C716.15 270.02 717.7 271.88 717.7 274.11C717.7 276.49 716.28 278.45 714.06 278.86L651.01 279.09C643.08 279.09 638.81 284.59 638.81 291.29C638.81 298.12 645.15 303.61 651.01 303.61L712.9 303.61C715.58 303.66 717.76 305.85 717.76 308.57L717.76 308.75C717.76 308.76 717.77 308.78 717.78 308.79L717.78 315C717.78 321.84 723.28 327.34 730 327.34C736.83 327.34 742.33 321.84 742.33 315C742.33 300.05 742.33 298.06 742.33 297.86C742.33 294.31 741.22 291.38 735.97 291.38C740.12 291.38 742.33 287.24 742.33 284.31Z" />
            </g>
            <g id="&lt;Group&gt;">
                <g id="&lt;Group&gt;">
                    <path id="&lt;Compound Path&gt;" class="shp1" d="M574.13 244.34C580.49 244.34 585.61 249.46 585.61 255.71C585.61 262.07 580.49 267.19 574.13 267.19L481.04 267.19C475.58 267.19 469.68 262.07 469.68 255.71C469.68 249.46 473.66 244.34 481.04 244.34L574.13 244.34Z" />
                </g>
                <g id="&lt;Group&gt;">
                    <path id="&lt;Compound Path&gt;" class="shp1" d="M574.13 275.05C580.49 275.05 585.61 280.16 585.61 286.4C585.61 292.77 580.49 297.88 574.13 297.88L481.04 297.88C475.58 297.88 469.68 292.77 469.68 286.4C469.68 280.16 473.66 275.05 481.04 275.05L574.13 275.05Z" />
                </g>
                <path id="&lt;Path&gt;" class="shp1" d="M574.13 305.74L481.04 305.74C473.66 305.74 469.68 310.86 469.68 317.11C469.68 323.48 475.58 328.57 481.04 328.57L506.73 328.57C510.43 332.8 520.3 340.58 528.04 340.58C535.78 340.58 545.92 332.8 549.72 328.57L574.13 328.57C580.49 328.57 585.61 323.48 585.61 317.11C585.61 310.86 580.49 305.74 574.13 305.74Z" />
            </g>
            <g id="&lt;Group&gt;">
                <g id="&lt;Group&gt;">
                    <path id="&lt;Path&gt;" class="shp2" d="M590.77 30.16C592.21 27.28 583.63 15.33 560.59 7.16C552.31 4.22 542.87 1.75 533.31 1.22C520.62 0.25 491.31 -0.53 460.72 19.38C437.4 38.05 421.92 63.21 421.92 86.91C421.92 98.24 423.4 115.65 432.7 132.18C439.16 143.68 451.94 155.96 457.85 167.39C464.43 178.8 466.16 189.09 467.16 194.75C469 204.94 468.22 210.92 468.89 218.58C469.35 224.84 475.09 234.93 486.93 235.12C488.18 235.14 495.93 232.78 488.03 229.18C485.22 227.91 480.12 228.46 477.11 218.54C475 211.57 477.54 199.86 475.84 190.42C475.22 185.54 473.65 176.02 467.9 163.8C462.17 151.61 454.19 140.24 448.51 127.15C435.51 100.74 439.31 83.72 442.04 73.98C446.35 61.77 454.97 46.68 474.37 33.03C497.97 16.42 526.3 14.27 536.16 14.35C551.06 14.47 563.03 18.14 569.06 20.37C580.81 24.72 589.81 31.97 590.77 30.16Z" />
                </g>
                <path id="&lt;Path&gt;" class="shp2" d="M628.13 89.79C625.05 65.99 610.48 49.94 608.74 50.99C605.15 53.15 616.85 65.7 618.06 88.55C618.33 93.77 617.45 105.99 610.84 121.62C604.99 135.43 594.33 151.62 586.79 166.72C582.86 174.57 580.12 183.05 579.16 189.02L579.25 188.98C579.1 189.89 578.96 190.69 578.83 191.39C577.46 200.66 579.76 211.8 577.72 218.54C574.71 228.46 569.61 227.91 566.81 229.18C558.91 232.78 565.76 234.96 567.91 235.12C579.71 236 585.48 224.84 585.95 218.58C586.62 210.92 585.74 205.45 587.2 195.21C587.74 191.51 589.38 185.31 590.57 181.82C593.7 172.57 610.24 149.89 620.46 128.24C625.37 117.84 630.09 104.79 628.13 89.79Z" />
            </g>
        </g>
    </g>
</svg>